<svg xmlns="http://www.w3.org/2000/svg" width="128" height="128" viewBox="0 0 128 128">
  <defs>
    <linearGradient id="grad1" x1="0%" y1="0%" x2="100%" y2="100%">
      <stop offset="0%" style="stop-color:#3584e4;stop-opacity:1" />
      <stop offset="100%" style="stop-color:#1c71d8;stop-opacity:1" />
    </linearGradient>
  </defs>
  
  <!-- Fondo circular -->
  <circle cx="64" cy="64" r="60" fill="url(#grad1)" />
  
  <!-- Escudo VPN -->
  <path d="M 64 20 L 40 30 L 40 50 C 40 70 48 85 64 95 C 80 85 88 70 88 50 L 88 30 Z" 
        fill="white" opacity="0.95" />
  
  <!-- Lock -->
  <rect x="54" y="52" width="20" height="24" rx="2" fill="#1c71d8" />
  <path d="M 56 52 L 56 46 C 56 41.6 59.6 38 64 38 C 68.4 38 72 41.6 72 46 L 72 52" 
        stroke="#1c71d8" stroke-width="3" fill="none" />
  <circle cx="64" cy="62" r="3" fill="white" />
  <line x1="64" y1="65" x2="64" y2="71" stroke="white" stroke-width="2" stroke-linecap="round" />
  
  <!-- Connection points -->
  <circle cx="30" cy="64" r="4" fill="white" opacity="0.7" />
  <circle cx="98" cy="64" r="4" fill="white" opacity="0.7" />
  <line x1="34" y1="64" x2="50" y2="64" stroke="white" stroke-width="2" opacity="0.5" stroke-dasharray="3,3" />
  <line x1="78" y1="64" x2="94" y2="64" stroke="white" stroke-width="2" opacity="0.5" stroke-dasharray="3,3" />
</svg>
